<svg height="512pt" viewBox="0 0 512 512" width="512pt" xmlns="http://www.w3.org/2000/svg"><path d="m512 256c0 141.386719-114.613281 256-256 256s-256-114.613281-256-256 114.613281-256 256-256 256 114.613281 256 256zm0 0" fill="#a7dcfc"/><path d="m512 256c0-5.390625-.1875-10.738281-.515625-16.046875l-92.90625-92.902344-80.890625-39.222656-43.242188-43.828125-230.445312 230.445312 43.828125 43.242188 39.59375 81.261719 92.53125 92.535156c5.308594.328125 10.65625.515625 16.046875.515625 141.386719 0 256-114.613281 256-256zm0 0" fill="#4bb4f5"/><path d="m448 294.445312v-76.890624l-36.414062-10.585938c-2.863282-9.0625-6.515626-17.863281-10.914063-26.285156l18.277344-33.261719-54.371094-54.371094-33.261719 18.277344c-8.421875-4.398437-17.222656-8.050781-26.285156-10.914063l-10.585938-36.414062h-38.445312l-45 192 45 192h38.445312l10.585938-36.414062c9.0625-2.863282 17.867188-6.515626 26.289062-10.914063l33.261719 18.277344 54.367188-54.371094-18.277344-33.261719c4.398437-8.421875 8.054687-17.222656 10.914063-26.285156zm0 0" fill="#5c6f74"/><path d="m217.554688 64-10.585938 36.414062c-9.0625 2.863282-17.867188 6.515626-26.289062 10.914063l-33.257813-18.277344-54.371094 54.371094 18.277344 33.261719c-4.398437 8.417968-8.050781 17.222656-10.914063 26.285156l-36.414062 10.585938v76.890624l36.414062 10.585938c2.863282 9.0625 6.515626 17.863281 10.914063 26.285156l-18.277344 33.261719 54.371094 54.371094 33.261719-18.277344c8.417968 4.398437 17.222656 8.050781 26.285156 10.914063l10.585938 36.414062h38.445312v-384zm0 0" fill="#98a09f"/><path d="m256 370c62.859375 0 114-51.140625 114-114l-159-22.5zm0 0" fill="#f85b3f"/><path d="m256 142-45 114h159c0-62.859375-51.140625-114-114-114zm0 0" fill="#3e575f"/><path d="m256 256h-80.570312v80.570312c20.640624 20.644532 49.140624 33.429688 80.570312 33.429688zm0 0" fill="#4bb4f5"/><path d="m256 142c-62.859375 0-114 51.140625-114 114 0 31.429688 12.785156 59.929688 33.429688 80.570312l80.570312-80.570312zm0 0" fill="#fabe5c"/></svg>